<svg width="202" height="52" viewBox="0 0 202 52" fill="none" xmlns="http://www.w3.org/2000/svg">
<path d="M22 15L4.85 25.35L22 35.65L19.25 39.7L0.05 27.75V22.9L19.4 10.95L22 15ZM44.3805 1.65C45.4805 1.65 46.3638 1.98333 47.0305 2.65C47.6971 3.31667 48.0305 4.16667 48.0305 5.2C48.0305 6.2 47.6971 7.03333 47.0305 7.7C46.3638 8.36667 45.4805 8.7 44.3805 8.7C43.3138 8.7 42.4305 8.36667 41.7305 7.7C41.0638 7.03333 40.7305 6.2 40.7305 5.2C40.7305 4.2 41.0638 3.36666 41.7305 2.7C42.4305 2 43.3138 1.65 44.3805 1.65ZM48.7305 35.45C48.7305 40.2167 47.2805 43.8667 44.3805 46.4C41.4805 48.9333 37.0805 50.7333 31.1805 51.8L30.2805 47.5C34.5471 46.7 37.7471 45.4167 39.8805 43.65C42.0471 41.8833 43.1305 39.2667 43.1305 35.8V18.7H32.7305V14.6H48.7305V35.45ZM74.0609 41L71.0609 22.25L67.8609 41H61.0109L56.5609 14.6H61.9609L64.7109 37.5L68.4109 17.95H74.0109L77.4109 37.5L80.1609 14.6H85.3609L81.0609 41H74.0609ZM110.591 34.55C110.591 35.55 110.741 36.3 111.041 36.8C111.341 37.2667 111.858 37.6167 112.591 37.85L111.291 41.65C108.525 41.3167 106.708 40.1 105.841 38C104.875 39.2 103.658 40.1167 102.191 40.75C100.758 41.35 99.1747 41.65 97.4414 41.65C94.7747 41.65 92.6581 40.9 91.0914 39.4C89.5247 37.9 88.7414 35.9167 88.7414 33.45C88.7414 30.6833 89.8247 28.55 91.9914 27.05C94.1914 25.55 97.2914 24.8 101.291 24.8H105.041V23.1C105.041 21.4333 104.541 20.2167 103.541 19.45C102.541 18.6833 101.091 18.3 99.1914 18.3C98.2581 18.3 97.1747 18.4167 95.9414 18.65C94.7081 18.8833 93.4581 19.2167 92.1914 19.65L90.7914 15.7C93.9581 14.5 97.0414 13.9 100.041 13.9C103.541 13.9 106.175 14.6667 107.941 16.2C109.708 17.7333 110.591 19.9167 110.591 22.75V34.55ZM99.0914 37.55C100.258 37.55 101.375 37.25 102.441 36.65C103.541 36.05 104.408 35.2167 105.041 34.15V28.3H101.941C99.4081 28.3 97.5581 28.7333 96.3914 29.6C95.2247 30.4333 94.6414 31.65 94.6414 33.25C94.6414 34.65 95.0081 35.7167 95.7414 36.45C96.5081 37.1833 97.6247 37.55 99.0914 37.55ZM133.122 37.05C135.222 37.05 137.389 36.3 139.622 34.8L142.172 38.4C141.005 39.4 139.605 40.2 137.972 40.8C136.339 41.3667 134.655 41.65 132.922 41.65C128.889 41.65 125.739 40.4167 123.472 37.95C121.205 35.45 120.072 32.1167 120.072 27.95C120.072 25.25 120.589 22.85 121.622 20.75C122.655 18.6167 124.139 16.95 126.072 15.75C128.039 14.5167 130.355 13.9 133.022 13.9C136.522 13.9 139.572 14.9667 142.172 17.1L139.572 20.6C137.439 19.1333 135.289 18.4 133.122 18.4C130.922 18.4 129.189 19.2 127.922 20.8C126.655 22.3667 126.022 24.75 126.022 27.95C126.022 31.0833 126.655 33.3833 127.922 34.85C129.189 36.3167 130.922 37.05 133.122 37.05ZM148.102 44.3L169.302 0.399998L173.702 2.45L152.552 46.3L148.102 44.3ZM201.883 22.9V27.75L182.683 39.7L179.933 35.7L197.033 25.35L179.933 15.1L182.533 10.95L201.883 22.9Z" fill="white"/>
</svg>
