<svg width="352" height="52" viewBox="0 0 352 52" fill="none" xmlns="http://www.w3.org/2000/svg">
<path d="M22 15L4.85 25.35L22 35.65L19.25 39.7L0.05 27.75V22.9L19.4 10.95L22 15ZM44.3805 1.65C45.4805 1.65 46.3638 1.98333 47.0305 2.65C47.6971 3.31667 48.0305 4.16667 48.0305 5.2C48.0305 6.2 47.6971 7.03333 47.0305 7.7C46.3638 8.36667 45.4805 8.7 44.3805 8.7C43.3138 8.7 42.4305 8.36667 41.7305 7.7C41.0638 7.03333 40.7305 6.2 40.7305 5.2C40.7305 4.2 41.0638 3.36666 41.7305 2.7C42.4305 2 43.3138 1.65 44.3805 1.65ZM48.7305 35.45C48.7305 40.2167 47.2805 43.8667 44.3805 46.4C41.4805 48.9333 37.0805 50.7333 31.1805 51.8L30.2805 47.5C34.5471 46.7 37.7471 45.4167 39.8805 43.65C42.0471 41.8833 43.1305 39.2667 43.1305 35.8V18.7H32.7305V14.6H48.7305V35.45ZM74.0609 41L71.0609 22.25L67.8609 41H61.0109L56.5609 14.6H61.9609L64.7109 37.5L68.4109 17.95H74.0109L77.4109 37.5L80.1609 14.6H85.3609L81.0609 41H74.0609ZM110.591 34.55C110.591 35.55 110.741 36.3 111.041 36.8C111.341 37.2667 111.858 37.6167 112.591 37.85L111.291 41.65C108.525 41.3167 106.708 40.1 105.841 38C104.875 39.2 103.658 40.1167 102.191 40.75C100.758 41.35 99.1747 41.65 97.4414 41.65C94.7747 41.65 92.6581 40.9 91.0914 39.4C89.5247 37.9 88.7414 35.9167 88.7414 33.45C88.7414 30.6833 89.8247 28.55 91.9914 27.05C94.1914 25.55 97.2914 24.8 101.291 24.8H105.041V23.1C105.041 21.4333 104.541 20.2167 103.541 19.45C102.541 18.6833 101.091 18.3 99.1914 18.3C98.2581 18.3 97.1747 18.4167 95.9414 18.65C94.7081 18.8833 93.4581 19.2167 92.1914 19.65L90.7914 15.7C93.9581 14.5 97.0414 13.9 100.041 13.9C103.541 13.9 106.175 14.6667 107.941 16.2C109.708 17.7333 110.591 19.9167 110.591 22.75V34.55ZM99.0914 37.55C100.258 37.55 101.375 37.25 102.441 36.65C103.541 36.05 104.408 35.2167 105.041 34.15V28.3H101.941C99.4081 28.3 97.5581 28.7333 96.3914 29.6C95.2247 30.4333 94.6414 31.65 94.6414 33.25C94.6414 34.65 95.0081 35.7167 95.7414 36.45C96.5081 37.1833 97.6247 37.55 99.0914 37.55ZM131.972 33.8C131.972 36.0333 133.305 37.15 135.972 37.15C137.305 37.15 138.705 36.85 140.172 36.25L141.572 40.15C139.739 41.15 137.472 41.65 134.772 41.65C132.139 41.65 130.072 40.9167 128.572 39.45C127.105 37.95 126.372 35.9 126.372 33.3V8.1H118.422V4H131.972V33.8ZM164.152 41H157.652L148.302 14.6H154.352L161.002 36.35L167.752 14.6H173.502L164.152 41ZM200.533 34.55C200.533 35.55 200.683 36.3 200.983 36.8C201.283 37.2667 201.799 37.6167 202.533 37.85L201.233 41.65C198.466 41.3167 196.649 40.1 195.783 38C194.816 39.2 193.599 40.1167 192.133 40.75C190.699 41.35 189.116 41.65 187.383 41.65C184.716 41.65 182.599 40.9 181.033 39.4C179.466 37.9 178.683 35.9167 178.683 33.45C178.683 30.6833 179.766 28.55 181.933 27.05C184.133 25.55 187.233 24.8 191.233 24.8H194.983V23.1C194.983 21.4333 194.483 20.2167 193.483 19.45C192.483 18.6833 191.033 18.3 189.133 18.3C188.199 18.3 187.116 18.4167 185.883 18.65C184.649 18.8833 183.399 19.2167 182.133 19.65L180.733 15.7C183.899 14.5 186.983 13.9 189.983 13.9C193.483 13.9 196.116 14.6667 197.883 16.2C199.649 17.7333 200.533 19.9167 200.533 22.75V34.55ZM189.033 37.55C190.199 37.55 191.316 37.25 192.383 36.65C193.483 36.05 194.349 35.2167 194.983 34.15V28.3H191.883C189.349 28.3 187.499 28.7333 186.333 29.6C185.166 30.4333 184.583 31.65 184.583 33.25C184.583 34.65 184.949 35.7167 185.683 36.45C186.449 37.1833 187.566 37.55 189.033 37.55ZM229.013 13.95C230.38 13.95 231.713 14.1667 233.013 14.6L232.063 24.35H228.063V18.95C226.23 18.9833 224.63 19.7167 223.263 21.15C221.93 22.5833 220.863 24.6 220.063 27.2V37H225.363V41H210.563V37H214.463V18.6H210.563V14.6H218.713L219.713 20.7C220.747 18.4333 221.997 16.75 223.463 15.65C224.963 14.5167 226.813 13.95 229.013 13.95ZM244.944 29.6C245.11 32.1667 245.844 34.1 247.144 35.4C248.477 36.6667 250.144 37.3 252.144 37.3C253.377 37.3 254.544 37.1167 255.644 36.75C256.777 36.35 257.927 35.7667 259.094 35L261.494 38.4C260.26 39.4333 258.81 40.2333 257.144 40.8C255.477 41.3667 253.727 41.65 251.894 41.65C247.86 41.65 244.727 40.4 242.494 37.9C240.26 35.3667 239.144 32 239.144 27.8C239.144 25.1667 239.627 22.8 240.594 20.7C241.56 18.5667 242.96 16.9 244.794 15.7C246.627 14.5 248.76 13.9 251.194 13.9C254.694 13.9 257.46 15.0833 259.494 17.45C261.56 19.7833 262.594 23 262.594 27.1C262.594 28.1 262.544 28.9333 262.444 29.6H244.944ZM251.244 18.05C249.444 18.05 247.977 18.7 246.844 20C245.71 21.3 245.06 23.2333 244.894 25.8H257.144C257.077 23.3 256.544 21.3833 255.544 20.05C254.544 18.7167 253.11 18.05 251.244 18.05ZM291.224 36.5L290.624 41H270.374V36.9L284.424 19.1H271.474V14.6H291.024V18.7L277.074 36.5H291.224ZM298.005 44.3L319.205 0.399998L323.605 2.45L302.455 46.3L298.005 44.3ZM351.785 22.9V27.75L332.585 39.7L329.835 35.7L346.935 25.35L329.835 15.1L332.435 10.95L351.785 22.9Z" fill="white"/>
</svg>
